<?xml version="1.0" standalone="no"?>
<!DOCTYPE svg PUBLIC "-//W3C//DTD SVG 20010904//EN"
 "http://www.w3.org/TR/2001/REC-SVG-20010904/DTD/svg10.dtd">
<svg version="1.0" xmlns="http://www.w3.org/2000/svg"
 width="733.000000pt" height="733.000000pt" viewBox="0 0 733.000000 733.000000"
 preserveAspectRatio="xMidYMid meet">
<metadata>
Created by potrace 1.11, written by Peter Selinger 2001-2013
</metadata>
<g transform="translate(0.000000,733.000000) scale(0.100000,-0.100000)"
fill="#000000" stroke="none">
<path d="M3 5470 c0 -903 4 -1643 8 -1645 7 -5 603 -8 1219 -6 l315 1 0 440 0
440 406 -406 405 -405 545 545 545 545 -1065 1065 -1066 1066 -656 0 -656 0 0
-1640z"/>
<path d="M4361 5465 c-1644 -1645 -1644 -1645 -1605 -1646 22 0 512 -1 1089
-1 l1050 0 443 442 c424 424 442 441 443 408 0 -18 1 -214 1 -436 1 -248 5
-405 11 -409 7 -4 1376 -8 1512 -4 20 1 20 7 18 1628 -1 896 -2 1636 -2 1646
-1 16 -39 17 -658 17 l-658 -1 -1644 -1644z"/>
<path d="M5 3510 c-1 -3 -2 -743 -1 -1645 l1 -1640 655 -2 655 -2 1642 1641
c903 903 1640 1644 1638 1647 -2 4 -491 6 -1087 6 l-1083 -1 -437 -437 c-240
-240 -438 -437 -440 -437 -2 0 -3 197 -3 437 l0 438 -768 0 c-423 0 -770 -2
-772 -5z"/>
<path d="M5799 3512 c-14 -3 -16 -52 -17 -425 0 -232 -1 -429 -1 -437 -1 -8
-183 167 -405 389 -354 354 -407 403 -421 391 -19 -16 -1048 -1044 -1064
-1064 -9 -11 195 -220 1054 -1079 l1065 -1065 655 0 c603 0 655 1 656 16 1 22
1 3219 0 3252 l-1 25 -753 0 c-414 0 -760 -1 -768 -3z"/>
</g>
</svg>
